<mxfile host="drawio-plugin" modified="2022-10-25T22:23:26.649Z" agent="5.0 (Windows NT 6.2; Win64; x64) AppleWebKit/537.36 (KHTML, like Gecko) Chrome/98.0.4758.102 Safari/537.36" version="15.5.4" etag="MlK7-9f4qE7R0GlyTjR4" type="embed"><diagram id="vEO-fi0PIGtUyrCe1I8E" name="Page-1"><mxGraphModel dx="837" dy="645" grid="1" gridSize="10" guides="1" tooltips="1" connect="1" arrows="1" fold="1" page="1" pageScale="1" pageWidth="850" pageHeight="1100" math="0" shadow="0"><root><mxCell id="0"/><mxCell id="1" parent="0"/><mxCell id="2" value="b:Board" style="shape=umlLifeline;perimeter=lifelinePerimeter;whiteSpace=wrap;html=1;container=1;collapsible=0;recursiveResize=0;outlineConnect=0;" vertex="1" parent="1"><mxGeometry x="260" y="70" width="90" height="660" as="geometry"/></mxCell><mxCell id="3" value="" style="html=1;points=[];perimeter=orthogonalPerimeter;" vertex="1" parent="2"><mxGeometry x="40" y="90" width="10" height="190" as="geometry"/></mxCell><mxCell id="4" value="" style="html=1;points=[];perimeter=orthogonalPerimeter;" vertex="1" parent="2"><mxGeometry x="45" y="110" width="10" height="160" as="geometry"/></mxCell><mxCell id="5" value="allBoardWords" style="edgeStyle=orthogonalEdgeStyle;html=1;align=left;spacingLeft=2;endArrow=block;rounded=0;entryX=1;entryY=0;exitX=0.514;exitY=-0.005;exitDx=0;exitDy=0;exitPerimeter=0;" edge="1" parent="2" source="3" target="4"><mxGeometry relative="1" as="geometry"><mxPoint x="50" y="110" as="sourcePoint"/><Array as="points"><mxPoint x="80" y="89"/><mxPoint x="80" y="110"/></Array></mxGeometry></mxCell><mxCell id="6" value="" style="html=1;points=[];perimeter=orthogonalPerimeter;" vertex="1" parent="2"><mxGeometry x="52" y="240" width="10" height="20" as="geometry"/></mxCell><mxCell id="7" value="wordStartingFrom();" style="edgeStyle=orthogonalEdgeStyle;html=1;align=left;spacingLeft=2;endArrow=block;rounded=0;entryX=1;entryY=0;exitX=0.961;exitY=0.687;exitDx=0;exitDy=0;exitPerimeter=0;" edge="1" parent="2" source="4" target="6"><mxGeometry relative="1" as="geometry"><mxPoint x="57" y="220" as="sourcePoint"/><Array as="points"><mxPoint x="97" y="220"/><mxPoint x="97" y="240"/></Array></mxGeometry></mxCell><mxCell id="8" value="" style="html=1;points=[];perimeter=orthogonalPerimeter;" vertex="1" parent="2"><mxGeometry x="40" y="310" width="10" height="280" as="geometry"/></mxCell><mxCell id="9" value="" style="html=1;points=[];perimeter=orthogonalPerimeter;" vertex="1" parent="2"><mxGeometry x="45" y="340" width="10" height="200" as="geometry"/></mxCell><mxCell id="10" value="getNewWords();" style="edgeStyle=orthogonalEdgeStyle;html=1;align=left;spacingLeft=2;endArrow=block;rounded=0;entryX=1;entryY=0;exitX=1.02;exitY=0.02;exitDx=0;exitDy=0;exitPerimeter=0;" edge="1" parent="2" source="8" target="9"><mxGeometry relative="1" as="geometry"><mxPoint x="57" y="320" as="sourcePoint"/><Array as="points"><mxPoint x="87" y="320"/><mxPoint x="87" y="340"/></Array></mxGeometry></mxCell><mxCell id="11" value="" style="html=1;points=[];perimeter=orthogonalPerimeter;" vertex="1" parent="2"><mxGeometry x="50.000000000000014" y="370.95" width="10" height="160" as="geometry"/></mxCell><mxCell id="12" value="allBoardWords" style="edgeStyle=orthogonalEdgeStyle;html=1;align=left;spacingLeft=2;endArrow=block;rounded=0;entryX=1;entryY=0;exitX=0.514;exitY=-0.005;exitDx=0;exitDy=0;exitPerimeter=0;" edge="1" parent="2" target="11"><mxGeometry relative="1" as="geometry"><mxPoint x="61.999999999999886" y="350.00000000000006" as="sourcePoint"/><Array as="points"><mxPoint x="91.86000000000001" y="349.95"/><mxPoint x="91.86000000000001" y="370.95"/></Array></mxGeometry></mxCell><mxCell id="13" value="" style="html=1;points=[];perimeter=orthogonalPerimeter;" vertex="1" parent="2"><mxGeometry x="55" y="500.00000000000006" width="10" height="20" as="geometry"/></mxCell><mxCell id="14" value="wordStartingFrom();" style="edgeStyle=orthogonalEdgeStyle;html=1;align=left;spacingLeft=2;endArrow=block;rounded=0;entryX=1;entryY=0;exitX=0.95;exitY=0.522;exitDx=0;exitDy=0;exitPerimeter=0;" edge="1" parent="2" source="11" target="13"><mxGeometry relative="1" as="geometry"><mxPoint x="-131.14" y="410.95" as="sourcePoint"/><Array as="points"><mxPoint x="60" y="481"/><mxPoint x="90" y="481"/><mxPoint x="90" y="500"/></Array></mxGeometry></mxCell><mxCell id="15" value="t:BoardTile" style="shape=umlLifeline;perimeter=lifelinePerimeter;whiteSpace=wrap;html=1;container=1;collapsible=0;recursiveResize=0;outlineConnect=0;" vertex="1" parent="1"><mxGeometry x="420" y="70" width="100" height="650" as="geometry"/></mxCell><mxCell id="16" value="" style="html=1;points=[];perimeter=orthogonalPerimeter;" vertex="1" parent="15"><mxGeometry x="45" y="120" width="10" height="30" as="geometry"/></mxCell><mxCell id="17" value="" style="html=1;points=[];perimeter=orthogonalPerimeter;" vertex="1" parent="15"><mxGeometry x="45" y="180" width="10" height="20" as="geometry"/></mxCell><mxCell id="18" value="" style="html=1;points=[];perimeter=orthogonalPerimeter;" vertex="1" parent="15"><mxGeometry x="45" y="380.95" width="10" height="30" as="geometry"/></mxCell><mxCell id="19" value="" style="html=1;points=[];perimeter=orthogonalPerimeter;" vertex="1" parent="15"><mxGeometry x="45" y="440.95" width="10" height="20" as="geometry"/></mxCell><mxCell id="20" value="s:ScrabbleModel" style="shape=umlLifeline;perimeter=lifelinePerimeter;whiteSpace=wrap;html=1;container=1;collapsible=0;recursiveResize=0;outlineConnect=0;" vertex="1" parent="1"><mxGeometry x="40" y="70" width="100" height="660" as="geometry"/></mxCell><mxCell id="21" value="" style="html=1;points=[];perimeter=orthogonalPerimeter;" vertex="1" parent="20"><mxGeometry x="45" y="70" width="10" height="570" as="geometry"/></mxCell><mxCell id="22" value="validateInput();" style="edgeStyle=orthogonalEdgeStyle;html=1;align=left;spacingLeft=2;endArrow=block;rounded=0;entryX=1;entryY=0;" edge="1" parent="20" target="21"><mxGeometry relative="1" as="geometry"><mxPoint x="37.5" y="40" as="sourcePoint"/><Array as="points"><mxPoint x="67.5" y="40"/></Array></mxGeometry></mxCell><mxCell id="23" value="getNewWords();" style="html=1;verticalAlign=bottom;endArrow=block;entryX=0;entryY=0;rounded=0;exitX=0.993;exitY=0.035;exitDx=0;exitDy=0;exitPerimeter=0;" edge="1" parent="1" source="21" target="3"><mxGeometry relative="1" as="geometry"><mxPoint x="95" y="170" as="sourcePoint"/></mxGeometry></mxCell><mxCell id="24" value="List&amp;lt;String&amp;gt;" style="html=1;verticalAlign=bottom;endArrow=open;dashed=1;endSize=8;rounded=0;exitX=0;exitY=1;exitDx=0;exitDy=0;exitPerimeter=0;" edge="1" parent="1" source="3" target="21"><mxGeometry x="-0.0625" y="-9" relative="1" as="geometry"><mxPoint x="95" y="246" as="targetPoint"/><mxPoint x="250" y="350" as="sourcePoint"/><mxPoint as="offset"/></mxGeometry></mxCell><mxCell id="25" value="copy();" style="html=1;verticalAlign=bottom;endArrow=block;entryX=0;entryY=0;rounded=0;exitX=1.155;exitY=0.053;exitDx=0;exitDy=0;exitPerimeter=0;" edge="1" parent="1" source="4" target="16"><mxGeometry relative="1" as="geometry"><mxPoint x="270" y="190" as="sourcePoint"/></mxGeometry></mxCell><mxCell id="26" value="BoardTile" style="html=1;verticalAlign=bottom;endArrow=open;dashed=1;endSize=8;exitX=0;exitY=0.95;rounded=0;" edge="1" parent="1" source="16" target="4"><mxGeometry relative="1" as="geometry"><mxPoint x="270" y="228" as="targetPoint"/></mxGeometry></mxCell><mxCell id="27" value="isTaken" style="html=1;verticalAlign=bottom;endArrow=block;entryX=0;entryY=0;rounded=0;exitX=1;exitY=0.441;exitDx=0;exitDy=0;exitPerimeter=0;" edge="1" parent="1" source="4" target="17"><mxGeometry relative="1" as="geometry"><mxPoint x="272" y="250" as="sourcePoint"/></mxGeometry></mxCell><mxCell id="28" value="boolean" style="html=1;verticalAlign=bottom;endArrow=open;dashed=1;endSize=8;exitX=0;exitY=0.95;rounded=0;" edge="1" parent="1" source="17" target="4"><mxGeometry relative="1" as="geometry"><mxPoint x="267" y="279" as="targetPoint"/></mxGeometry></mxCell><mxCell id="29" value="boardWordsValid" style="html=1;verticalAlign=bottom;endArrow=block;entryX=0;entryY=0;rounded=0;" edge="1" parent="1" source="21" target="8"><mxGeometry relative="1" as="geometry"><mxPoint x="95" y="360" as="sourcePoint"/></mxGeometry></mxCell><mxCell id="30" value="boolean" style="html=1;verticalAlign=bottom;endArrow=open;dashed=1;endSize=8;exitX=-0.067;exitY=0.996;rounded=0;exitDx=0;exitDy=0;exitPerimeter=0;" edge="1" parent="1" source="8" target="21"><mxGeometry relative="1" as="geometry"><mxPoint x="95" y="436" as="targetPoint"/></mxGeometry></mxCell><mxCell id="31" value="d:DictionaryHandler" style="shape=umlLifeline;perimeter=lifelinePerimeter;whiteSpace=wrap;html=1;container=1;collapsible=0;recursiveResize=0;outlineConnect=0;" vertex="1" parent="1"><mxGeometry x="570" y="70" width="110" height="650" as="geometry"/></mxCell><mxCell id="32" value="" style="html=1;points=[];perimeter=orthogonalPerimeter;" vertex="1" parent="31"><mxGeometry x="50" y="550" width="10" height="30" as="geometry"/></mxCell><mxCell id="33" value="copy();" style="html=1;verticalAlign=bottom;endArrow=block;entryX=0;entryY=0;rounded=0;exitX=1.155;exitY=0.053;exitDx=0;exitDy=0;exitPerimeter=0;" edge="1" parent="1" source="11" target="18"><mxGeometry relative="1" as="geometry"><mxPoint x="281.86" y="450.95" as="sourcePoint"/></mxGeometry></mxCell><mxCell id="34" value="BoardTile" style="html=1;verticalAlign=bottom;endArrow=open;dashed=1;endSize=8;exitX=0;exitY=0.95;rounded=0;" edge="1" parent="1" source="18" target="11"><mxGeometry relative="1" as="geometry"><mxPoint x="281.86" y="488.95" as="targetPoint"/></mxGeometry></mxCell><mxCell id="35" value="boolean" style="html=1;verticalAlign=bottom;endArrow=open;dashed=1;endSize=8;exitX=0;exitY=0.95;rounded=0;" edge="1" parent="1" source="19" target="11"><mxGeometry relative="1" as="geometry"><mxPoint x="278.86" y="539.95" as="targetPoint"/></mxGeometry></mxCell><mxCell id="36" value="boolean" style="html=1;verticalAlign=bottom;endArrow=open;dashed=1;endSize=8;exitX=0;exitY=0.95;rounded=0;" edge="1" parent="1" source="32" target="8"><mxGeometry relative="1" as="geometry"><mxPoint x="265" y="696" as="targetPoint"/></mxGeometry></mxCell><mxCell id="37" value="isTaken" style="html=1;verticalAlign=bottom;endArrow=block;entryX=0;entryY=0;rounded=0;exitX=1.233;exitY=0.432;exitDx=0;exitDy=0;exitPerimeter=0;" edge="1" parent="1" source="11" target="19"><mxGeometry relative="1" as="geometry"><mxPoint x="333.86" y="510.95" as="sourcePoint"/></mxGeometry></mxCell><mxCell id="38" value="isValidWord" style="html=1;verticalAlign=bottom;endArrow=block;entryX=0;entryY=0;rounded=0;exitX=0.929;exitY=0.86;exitDx=0;exitDy=0;exitPerimeter=0;" edge="1" parent="1" source="8" target="32"><mxGeometry relative="1" as="geometry"><mxPoint x="315" y="620" as="sourcePoint"/></mxGeometry></mxCell></root></mxGraphModel></diagram></mxfile>
